<mxfile host="app.diagrams.net" modified="2023-08-03T16:26:15.316Z" agent="Mozilla/5.0 (Windows NT 10.0; Win64; x64; rv:109.0) Gecko/20100101 Firefox/116.0" etag="65NSou_jlBg9mYaWBJ5W" version="21.6.6">
  <diagram name="Page-1" id="ZTlqqa37tIGZ_Z2DxApd">
    <mxGraphModel dx="594" dy="1594" grid="1" gridSize="10" guides="1" tooltips="1" connect="1" arrows="1" fold="1" page="1" pageScale="1" pageWidth="827" pageHeight="1169" math="0" shadow="0">
      <root>
        <mxCell id="0" />
        <mxCell id="1" parent="0" />
        <mxCell id="QCGxHbYCXskmZJ4mAyzk-1" value="" style="ellipse;whiteSpace=wrap;html=1;aspect=fixed;" vertex="1" parent="1">
          <mxGeometry x="374" y="310" width="80" height="80" as="geometry" />
        </mxCell>
        <mxCell id="QCGxHbYCXskmZJ4mAyzk-2" value="" style="endArrow=none;html=1;rounded=0;fillColor=#e3c800;strokeColor=#B09500;" edge="1" parent="1" target="QCGxHbYCXskmZJ4mAyzk-3">
          <mxGeometry width="50" height="50" relative="1" as="geometry">
            <mxPoint x="164" y="349.5" as="sourcePoint" />
            <mxPoint x="374" y="349.5" as="targetPoint" />
            <Array as="points">
              <mxPoint x="264" y="349.5" />
            </Array>
          </mxGeometry>
        </mxCell>
        <mxCell id="QCGxHbYCXskmZJ4mAyzk-3" value="" style="ellipse;whiteSpace=wrap;html=1;aspect=fixed;fillColor=#a20025;strokeColor=#6F0000;fontColor=#ffffff;" vertex="1" parent="1">
          <mxGeometry x="374" y="309.5" width="80" height="80" as="geometry" />
        </mxCell>
        <mxCell id="QCGxHbYCXskmZJ4mAyzk-4" value="" style="ellipse;whiteSpace=wrap;html=1;aspect=fixed;fillColor=#1ba1e2;fontColor=#ffffff;strokeColor=#006EAF;" vertex="1" parent="1">
          <mxGeometry x="90" y="309.5" width="80" height="80" as="geometry" />
        </mxCell>
        <mxCell id="QCGxHbYCXskmZJ4mAyzk-5" value="" style="endArrow=none;html=1;rounded=0;entryX=0.5;entryY=0;entryDx=0;entryDy=0;fillColor=#a20025;strokeColor=#6F0000;" edge="1" parent="1" target="QCGxHbYCXskmZJ4mAyzk-3">
          <mxGeometry width="50" height="50" relative="1" as="geometry">
            <mxPoint x="413" y="200" as="sourcePoint" />
            <mxPoint x="413" y="320" as="targetPoint" />
          </mxGeometry>
        </mxCell>
        <mxCell id="QCGxHbYCXskmZJ4mAyzk-6" value="" style="ellipse;whiteSpace=wrap;html=1;aspect=fixed;fillColor=#1ba1e2;fontColor=#ffffff;strokeColor=#006EAF;" vertex="1" parent="1">
          <mxGeometry x="374" y="120" width="80" height="80" as="geometry" />
        </mxCell>
        <mxCell id="QCGxHbYCXskmZJ4mAyzk-7" value="" style="endArrow=none;html=1;rounded=0;exitX=1;exitY=0.5;exitDx=0;exitDy=0;fillColor=#a20025;strokeColor=#6F0000;" edge="1" parent="1" source="QCGxHbYCXskmZJ4mAyzk-3">
          <mxGeometry width="50" height="50" relative="1" as="geometry">
            <mxPoint x="460" y="349" as="sourcePoint" />
            <mxPoint x="630" y="350" as="targetPoint" />
          </mxGeometry>
        </mxCell>
        <mxCell id="QCGxHbYCXskmZJ4mAyzk-8" value="" style="ellipse;whiteSpace=wrap;html=1;aspect=fixed;fillColor=#f0a30a;fontColor=#000000;strokeColor=#BD7000;" vertex="1" parent="1">
          <mxGeometry x="630" y="310" width="80" height="80" as="geometry" />
        </mxCell>
        <mxCell id="QCGxHbYCXskmZJ4mAyzk-9" value="" style="endArrow=none;dashed=1;html=1;dashPattern=1 3;strokeWidth=2;rounded=0;" edge="1" parent="1">
          <mxGeometry width="50" height="50" relative="1" as="geometry">
            <mxPoint x="50" y="350" as="sourcePoint" />
            <mxPoint x="90" y="349" as="targetPoint" />
          </mxGeometry>
        </mxCell>
        <mxCell id="QCGxHbYCXskmZJ4mAyzk-10" value="" style="endArrow=none;dashed=1;html=1;dashPattern=1 3;strokeWidth=2;rounded=0;" edge="1" parent="1">
          <mxGeometry width="50" height="50" relative="1" as="geometry">
            <mxPoint x="50" y="480" as="sourcePoint" />
            <mxPoint x="50" y="350" as="targetPoint" />
          </mxGeometry>
        </mxCell>
        <mxCell id="QCGxHbYCXskmZJ4mAyzk-11" value="" style="endArrow=none;dashed=1;html=1;dashPattern=1 3;strokeWidth=2;rounded=0;" edge="1" parent="1">
          <mxGeometry width="50" height="50" relative="1" as="geometry">
            <mxPoint x="50" y="480" as="sourcePoint" />
            <mxPoint x="110" y="480" as="targetPoint" />
            <Array as="points" />
          </mxGeometry>
        </mxCell>
        <mxCell id="QCGxHbYCXskmZJ4mAyzk-12" value="" style="ellipse;whiteSpace=wrap;html=1;aspect=fixed;fillColor=#1ba1e2;fontColor=#ffffff;strokeColor=#006EAF;" vertex="1" parent="1">
          <mxGeometry x="91.25" y="440" width="80" height="80" as="geometry" />
        </mxCell>
        <mxCell id="QCGxHbYCXskmZJ4mAyzk-13" value="" style="endArrow=none;html=1;rounded=0;fillColor=#e3c800;strokeColor=#B09500;" edge="1" parent="1">
          <mxGeometry width="50" height="50" relative="1" as="geometry">
            <mxPoint x="280" y="530" as="sourcePoint" />
            <mxPoint x="280" y="480" as="targetPoint" />
          </mxGeometry>
        </mxCell>
        <mxCell id="QCGxHbYCXskmZJ4mAyzk-14" value="" style="ellipse;whiteSpace=wrap;html=1;aspect=fixed;fillColor=#f0a30a;strokeColor=#BD7000;fontColor=#000000;" vertex="1" parent="1">
          <mxGeometry x="240" y="530" width="80" height="80" as="geometry" />
        </mxCell>
        <mxCell id="QCGxHbYCXskmZJ4mAyzk-15" value="" style="endArrow=none;html=1;rounded=0;entryX=0.5;entryY=1;entryDx=0;entryDy=0;fillColor=#e3c800;strokeColor=#B09500;" edge="1" parent="1" target="QCGxHbYCXskmZJ4mAyzk-1">
          <mxGeometry width="50" height="50" relative="1" as="geometry">
            <mxPoint x="414" y="530" as="sourcePoint" />
            <mxPoint x="440" y="400" as="targetPoint" />
            <Array as="points">
              <mxPoint x="414" y="440" />
            </Array>
          </mxGeometry>
        </mxCell>
        <mxCell id="QCGxHbYCXskmZJ4mAyzk-16" value="" style="ellipse;whiteSpace=wrap;html=1;aspect=fixed;fillColor=#60a917;fontColor=#ffffff;strokeColor=#2D7600;" vertex="1" parent="1">
          <mxGeometry x="374" y="530" width="80" height="80" as="geometry" />
        </mxCell>
        <mxCell id="QCGxHbYCXskmZJ4mAyzk-17" value="" style="ellipse;whiteSpace=wrap;html=1;aspect=fixed;fillColor=#60a917;fontColor=#ffffff;strokeColor=#2D7600;" vertex="1" parent="1">
          <mxGeometry x="520" y="530" width="80" height="80" as="geometry" />
        </mxCell>
        <mxCell id="QCGxHbYCXskmZJ4mAyzk-18" value="" style="ellipse;whiteSpace=wrap;html=1;aspect=fixed;" vertex="1" parent="1">
          <mxGeometry x="450" y="390" as="geometry" />
        </mxCell>
        <mxCell id="QCGxHbYCXskmZJ4mAyzk-19" value="Laptop" style="text;html=1;strokeColor=none;fillColor=none;align=center;verticalAlign=middle;whiteSpace=wrap;rounded=0;fontStyle=3;fontColor=#0000FF;fontFamily=Georgia;fontSize=15;" vertex="1" parent="1">
          <mxGeometry x="490" y="620" width="170" height="30" as="geometry" />
        </mxCell>
        <mxCell id="QCGxHbYCXskmZJ4mAyzk-20" value="Workstation" style="text;html=1;strokeColor=none;fillColor=none;align=center;verticalAlign=middle;whiteSpace=wrap;rounded=0;fontStyle=3;fontColor=#0000FF;fontFamily=Georgia;fontSize=15;" vertex="1" parent="1">
          <mxGeometry x="364" y="620" width="100" height="30" as="geometry" />
        </mxCell>
        <mxCell id="QCGxHbYCXskmZJ4mAyzk-21" value="Television" style="text;html=1;strokeColor=none;fillColor=none;align=center;verticalAlign=middle;whiteSpace=wrap;rounded=0;fontStyle=3;fontColor=#3333FF;fontFamily=Georgia;fontSize=15;" vertex="1" parent="1">
          <mxGeometry x="189" y="620" width="175" height="30" as="geometry" />
        </mxCell>
        <mxCell id="QCGxHbYCXskmZJ4mAyzk-22" value="&lt;b&gt;PLC&lt;/b&gt;" style="text;html=1;strokeColor=none;fillColor=none;align=center;verticalAlign=middle;whiteSpace=wrap;rounded=0;fontStyle=3;fontColor=#0000CC;fontFamily=Georgia;fontSize=15;" vertex="1" parent="1">
          <mxGeometry x="110" y="530" width="60" height="30" as="geometry" />
        </mxCell>
        <mxCell id="QCGxHbYCXskmZJ4mAyzk-23" value="&lt;b&gt;PLC&lt;/b&gt;" style="text;html=1;strokeColor=none;fillColor=none;align=center;verticalAlign=middle;whiteSpace=wrap;rounded=0;fontStyle=3;fontColor=#0000CC;fontFamily=Georgia;fontSize=15;" vertex="1" parent="1">
          <mxGeometry x="100" y="400" width="60" height="30" as="geometry" />
        </mxCell>
        <mxCell id="QCGxHbYCXskmZJ4mAyzk-24" value="Residential gateway" style="text;html=1;strokeColor=none;fillColor=none;align=center;verticalAlign=middle;whiteSpace=wrap;rounded=0;fontStyle=3;fontColor=#0000CC;fontFamily=Comic Sans MS;fontSize=16;" vertex="1" parent="1">
          <mxGeometry x="439" y="305.25" width="91" height="30" as="geometry" />
        </mxCell>
        <mxCell id="QCGxHbYCXskmZJ4mAyzk-25" value="RJ11" style="text;html=1;align=center;verticalAlign=middle;whiteSpace=wrap;rounded=0;fontStyle=3;fontColor=#CC0000;fontFamily=Georgia;fontSize=15;" vertex="1" parent="1">
          <mxGeometry x="510" y="350" width="90" height="30" as="geometry" />
        </mxCell>
        <mxCell id="QCGxHbYCXskmZJ4mAyzk-26" value="Telephone" style="text;html=1;strokeColor=none;fillColor=none;align=center;verticalAlign=middle;whiteSpace=wrap;rounded=0;fontStyle=3;fontColor=#0000CC;fontFamily=Georgia;fontSize=15;" vertex="1" parent="1">
          <mxGeometry x="640" y="400" width="60" height="30" as="geometry" />
        </mxCell>
        <mxCell id="QCGxHbYCXskmZJ4mAyzk-27" value="Internet" style="text;html=1;align=center;verticalAlign=middle;whiteSpace=wrap;rounded=0;fontStyle=3;fontColor=#3333FF;fontFamily=Comic Sans MS;fontSize=15;" vertex="1" parent="1">
          <mxGeometry x="454" y="110" width="60" height="30" as="geometry" />
        </mxCell>
        <mxCell id="QCGxHbYCXskmZJ4mAyzk-28" value="" style="html=1;verticalLabelPosition=bottom;align=center;labelBackgroundColor=#ffffff;verticalAlign=top;strokeWidth=2;shadow=0;dashed=0;shape=mxgraph.ios7.icons.wifi;pointerEvents=1;rotation=-225;fillColor=#60a917;fontColor=#ffffff;strokeColor=#2D7600;" vertex="1" parent="1">
          <mxGeometry x="450" y="380" width="29.7" height="21" as="geometry" />
        </mxCell>
        <mxCell id="QCGxHbYCXskmZJ4mAyzk-29" value="&lt;div style=&quot;font-size: 17px;&quot;&gt;Wi-Fi&lt;/div&gt;" style="text;html=1;strokeColor=none;fillColor=none;align=center;verticalAlign=middle;whiteSpace=wrap;rounded=0;fontColor=#0000CC;fontStyle=3;fontSize=17;" vertex="1" parent="1">
          <mxGeometry x="470" y="401" width="60" height="30" as="geometry" />
        </mxCell>
        <mxCell id="QCGxHbYCXskmZJ4mAyzk-30" value="" style="sketch=0;pointerEvents=1;shadow=0;dashed=0;html=1;labelPosition=center;verticalLabelPosition=bottom;verticalAlign=top;outlineConnect=0;align=center;shape=mxgraph.office.devices.laptop;fillColor=#f5f5f5;fontColor=#333333;strokeColor=#000000;" vertex="1" parent="1">
          <mxGeometry x="535.5" y="570" width="49" height="24" as="geometry" />
        </mxCell>
        <mxCell id="QCGxHbYCXskmZJ4mAyzk-31" value="" style="verticalLabelPosition=bottom;sketch=0;aspect=fixed;html=1;verticalAlign=top;strokeColor=none;align=center;outlineConnect=0;shape=mxgraph.citrix.ip_phone;" vertex="1" parent="1">
          <mxGeometry x="640" y="335.25" width="58.93" height="28.5" as="geometry" />
        </mxCell>
        <mxCell id="QCGxHbYCXskmZJ4mAyzk-32" value="" style="image;html=1;image=img/lib/clip_art/networking/Wireless_Router_N_128x128.png" vertex="1" parent="1">
          <mxGeometry x="382" y="320.75" width="80" height="49.5" as="geometry" />
        </mxCell>
        <mxCell id="QCGxHbYCXskmZJ4mAyzk-33" value="" style="shape=image;html=1;verticalAlign=top;verticalLabelPosition=bottom;labelBackgroundColor=#ffffff;imageAspect=0;aspect=fixed;image=https://cdn1.iconfinder.com/data/icons/nuvola2/128x128/devices/tv.png" vertex="1" parent="1">
          <mxGeometry x="245" y="535" width="70" height="70" as="geometry" />
        </mxCell>
        <mxCell id="QCGxHbYCXskmZJ4mAyzk-34" value="" style="ellipse;whiteSpace=wrap;html=1;aspect=fixed;fillColor=#1ba1e2;fontColor=#ffffff;strokeColor=#006EAF;" vertex="1" parent="1">
          <mxGeometry x="20" y="255" width="50" height="50" as="geometry" />
        </mxCell>
        <mxCell id="QCGxHbYCXskmZJ4mAyzk-35" value="" style="image;aspect=fixed;perimeter=ellipsePerimeter;html=1;align=center;shadow=0;dashed=0;spacingTop=3;image=img/lib/active_directory/home.svg;" vertex="1" parent="1">
          <mxGeometry x="29.07" y="265" width="30.93" height="30" as="geometry" />
        </mxCell>
        <mxCell id="QCGxHbYCXskmZJ4mAyzk-36" value="At Home" style="text;html=1;strokeColor=none;fillColor=none;align=center;verticalAlign=middle;whiteSpace=wrap;rounded=0;fontStyle=3;fontColor=#0000CC;fontFamily=Lucida Console;fontSize=15;" vertex="1" parent="1">
          <mxGeometry x="60" y="260" width="120" height="40" as="geometry" />
        </mxCell>
        <mxCell id="QCGxHbYCXskmZJ4mAyzk-37" value="" style="sketch=0;outlineConnect=0;dashed=0;verticalLabelPosition=bottom;verticalAlign=top;align=center;html=1;fontSize=12;fontStyle=0;aspect=fixed;pointerEvents=1;shape=mxgraph.aws4.iot_thing_plc;" vertex="1" parent="1">
          <mxGeometry x="102.5" y="320.75" width="57.5" height="57.5" as="geometry" />
        </mxCell>
        <mxCell id="QCGxHbYCXskmZJ4mAyzk-38" value="" style="image;aspect=fixed;perimeter=ellipsePerimeter;html=1;align=center;shadow=0;dashed=0;spacingTop=3;image=img/lib/active_directory/internet_globe.svg;" vertex="1" parent="1">
          <mxGeometry x="389" y="135" width="50" height="50" as="geometry" />
        </mxCell>
        <mxCell id="QCGxHbYCXskmZJ4mAyzk-39" style="edgeStyle=orthogonalEdgeStyle;rounded=0;orthogonalLoop=1;jettySize=auto;html=1;exitX=0;exitY=0.25;exitDx=0;exitDy=0;entryX=0;entryY=0;entryDx=0;entryDy=0;" edge="1" parent="1" source="QCGxHbYCXskmZJ4mAyzk-35" target="QCGxHbYCXskmZJ4mAyzk-35">
          <mxGeometry relative="1" as="geometry" />
        </mxCell>
        <mxCell id="QCGxHbYCXskmZJ4mAyzk-40" value="" style="html=1;verticalLabelPosition=bottom;align=center;labelBackgroundColor=#ffffff;verticalAlign=top;strokeWidth=2;shadow=0;dashed=0;shape=mxgraph.ios7.icons.wifi;pointerEvents=1;" vertex="1" parent="1">
          <mxGeometry x="545.15" y="540" width="29.7" height="20" as="geometry" />
        </mxCell>
        <mxCell id="QCGxHbYCXskmZJ4mAyzk-41" value="RJ45" style="text;html=1;strokeColor=none;fillColor=none;align=center;verticalAlign=middle;whiteSpace=wrap;rounded=0;shadow=0;fontStyle=3;fontColor=#CFB053;horizontal=1;fontFamily=Georgia;fontSize=15;" vertex="1" parent="1">
          <mxGeometry x="235" y="344.13" width="100" height="41.75" as="geometry" />
        </mxCell>
        <mxCell id="QCGxHbYCXskmZJ4mAyzk-42" value="" style="shape=image;html=1;verticalAlign=top;verticalLabelPosition=bottom;labelBackgroundColor=#ffffff;imageAspect=0;aspect=fixed;image=https://cdn4.iconfinder.com/data/icons/48-bubbles/48/24.TV-128.png" vertex="1" parent="1">
          <mxGeometry x="382" y="538.75" width="62.5" height="62.5" as="geometry" />
        </mxCell>
        <mxCell id="QCGxHbYCXskmZJ4mAyzk-43" value="" style="endArrow=none;html=1;rounded=0;" edge="1" parent="1">
          <mxGeometry width="50" height="50" relative="1" as="geometry">
            <mxPoint y="240" as="sourcePoint" />
            <mxPoint x="830" y="240" as="targetPoint" />
          </mxGeometry>
        </mxCell>
        <mxCell id="QCGxHbYCXskmZJ4mAyzk-44" value="" style="sketch=0;outlineConnect=0;fontColor=#333333;fillColor=#f5f5f5;strokeColor=#666666;dashed=0;verticalLabelPosition=bottom;verticalAlign=top;align=center;html=1;fontSize=12;fontStyle=0;aspect=fixed;pointerEvents=1;shape=mxgraph.aws4.iot_thing_plc;" vertex="1" parent="1">
          <mxGeometry x="98.75" y="448.75" width="62.5" height="62.5" as="geometry" />
        </mxCell>
        <mxCell id="QCGxHbYCXskmZJ4mAyzk-45" value="" style="endArrow=none;html=1;rounded=0;fillColor=#e3c800;strokeColor=#B09500;" edge="1" parent="1">
          <mxGeometry width="50" height="50" relative="1" as="geometry">
            <mxPoint x="280" y="480" as="sourcePoint" />
            <mxPoint x="280" y="480" as="targetPoint" />
            <Array as="points">
              <mxPoint x="170" y="480" />
            </Array>
          </mxGeometry>
        </mxCell>
      </root>
    </mxGraphModel>
  </diagram>
</mxfile>
